<svg xmlns="http://www.w3.org/2000/svg" viewBox="0 0 1000 980" font-family="-apple-system, BlinkMacSystemFont, 'Segoe UI', Roboto, Arial, sans-serif">
  <rect x="0" y="0" width="1000" height="980" fill="#ffffff"/>
  <text x="40" y="34" font-size="18" font-weight="700" fill="#333">Wireframe — Perspectives  <tspan font-size="12" font-weight="400" fill="#999">· content library</tspan></text>
  <rect x="40" y="48" width="920" height="910" fill="#ffffff" stroke="#cccccc"/>

  <!-- nav -->
  <rect x="40" y="48" width="920" height="56" fill="#F2F2F2" stroke="#cccccc"/>
  <rect x="64" y="68" width="90" height="20" rx="3" fill="#ddd"/><text x="109" y="82" font-size="11" text-anchor="middle" fill="#666">logo</text>
  <text x="300" y="82" font-size="12" fill="#666">Engine</text>
  <text x="372" y="82" font-size="12" fill="#666">Explorations</text>
  <text x="472" y="82" font-size="12" fill="#666">Thesis</text>
  <text x="543" y="82" font-size="12" font-weight="700" fill="#333">Perspectives</text>
  <text x="650" y="82" font-size="12" fill="#666">Community</text>
  <rect x="800" y="64" width="60" height="26" rx="4" fill="#ddd"/><text x="830" y="81" font-size="11" text-anchor="middle" fill="#666">Contact</text>
  <rect x="872" y="64" width="74" height="26" rx="4" fill="#444"/><text x="909" y="81" font-size="11" text-anchor="middle" fill="#fff">Platform</text>

  <!-- header -->
  <rect x="40" y="104" width="920" height="120" fill="#FAFAFA" stroke="#cccccc"/>
  <rect x="80" y="134" width="480" height="26" rx="3" fill="#e2e2e2"/><text x="92" y="153" font-size="14" font-weight="700" fill="#555">Essays, dispatches, and ratified work.</text>
  <text x="80" y="184" font-size="11" fill="#999">header — “Thesis is the story; Perspectives is the library”</text>
  <text x="700" y="153" font-size="11" fill="#666">growing content library</text>
  <text x="700" y="170" font-size="10" fill="#999">published perspectives</text>

  <!-- lane filter tabs -->
  <rect x="80" y="196" width="70" height="26" rx="4" fill="#444"/><text x="115" y="213" font-size="10" text-anchor="middle" fill="#fff">All</text>
  <rect x="160" y="196" width="90" height="26" rx="4" fill="#eee" stroke="#ccc"/><text x="205" y="213" font-size="10" text-anchor="middle" fill="#777">Essays</text>
  <rect x="260" y="196" width="130" height="26" rx="4" fill="#eee" stroke="#ccc"/><text x="325" y="213" font-size="10" text-anchor="middle" fill="#777">From the graph</text>
  <rect x="400" y="196" width="90" height="26" rx="4" fill="#eee" stroke="#ccc"/><text x="445" y="213" font-size="10" text-anchor="middle" fill="#777">Ratified</text>
  <text x="640" y="214" font-size="10" font-style="italic" fill="#5B7FA6">every item carries a provenance tag</text>

  <!-- post rows -->
  <g>
    <!-- row 1 -->
    <rect x="40" y="240" width="920" height="62" fill="#F7F7F7" stroke="#ddd"/>
    <rect x="56" y="248" width="92" height="46" fill="#E6E6E6"/><text x="102" y="275" font-size="9" text-anchor="middle" fill="#999">img</text>
    <rect x="164" y="248" width="56" height="14" rx="7" fill="#ddd"/><text x="192" y="259" font-size="8" text-anchor="middle" fill="#888">Essay</text>
    <rect x="230" y="248" width="70" height="14" fill="#e6e6e6"/>
    <rect x="164" y="270" width="420" height="14" fill="#e0e0e0"/>
    <rect x="164" y="290" width="560" height="9" fill="#ececec"/>
    <rect x="820" y="280" width="120" height="14" rx="7" fill="#eee"/><text x="880" y="291" font-size="8" text-anchor="middle" fill="#999">human-written</text>

    <!-- row 2 -->
    <rect x="40" y="312" width="920" height="62" fill="#F7F7F7" stroke="#ddd"/>
    <rect x="56" y="320" width="92" height="46" fill="#E6E6E6"/>
    <rect x="164" y="320" width="92" height="14" rx="7" fill="#ddd"/><text x="210" y="331" font-size="8" text-anchor="middle" fill="#888">From the graph</text>
    <rect x="266" y="320" width="70" height="14" fill="#e6e6e6"/>
    <rect x="164" y="342" width="420" height="14" fill="#e0e0e0"/>
    <rect x="164" y="362" width="560" height="9" fill="#ececec"/>
    <rect x="820" y="352" width="120" height="14" rx="7" fill="#eee"/><text x="880" y="363" font-size="8" text-anchor="middle" fill="#999">from the graph</text>

    <!-- row 3 -->
    <rect x="40" y="384" width="920" height="62" fill="#F7F7F7" stroke="#ddd"/>
    <rect x="56" y="392" width="92" height="46" fill="#E6E6E6"/>
    <rect x="164" y="392" width="64" height="14" rx="7" fill="#ddd"/><text x="196" y="403" font-size="8" text-anchor="middle" fill="#888">Ratified</text>
    <rect x="238" y="392" width="70" height="14" fill="#e6e6e6"/>
    <rect x="164" y="414" width="420" height="14" fill="#e0e0e0"/>
    <rect x="164" y="434" width="560" height="9" fill="#ececec"/>
    <rect x="820" y="424" width="120" height="14" rx="7" fill="#eee"/><text x="880" y="435" font-size="8" text-anchor="middle" fill="#999">ratified ✓</text>

    <!-- row 4 -->
    <rect x="40" y="456" width="920" height="62" fill="#F7F7F7" stroke="#ddd"/>
    <rect x="56" y="464" width="92" height="46" fill="#E6E6E6"/>
    <rect x="164" y="464" width="56" height="14" rx="7" fill="#ddd"/><text x="192" y="475" font-size="8" text-anchor="middle" fill="#888">Essay</text>
    <rect x="230" y="464" width="70" height="14" fill="#e6e6e6"/>
    <rect x="164" y="486" width="420" height="14" fill="#e0e0e0"/>
    <rect x="164" y="506" width="560" height="9" fill="#ececec"/>
    <rect x="820" y="496" width="120" height="14" rx="7" fill="#eee"/><text x="880" y="507" font-size="8" text-anchor="middle" fill="#999">human-written</text>

    <!-- row 5 -->
    <rect x="40" y="528" width="920" height="62" fill="#F7F7F7" stroke="#ddd"/>
    <rect x="56" y="536" width="92" height="46" fill="#E6E6E6"/>
    <rect x="164" y="536" width="92" height="14" rx="7" fill="#ddd"/><text x="210" y="547" font-size="8" text-anchor="middle" fill="#888">From the graph</text>
    <rect x="266" y="536" width="70" height="14" fill="#e6e6e6"/>
    <rect x="164" y="558" width="420" height="14" fill="#e0e0e0"/>
    <rect x="164" y="578" width="560" height="9" fill="#ececec"/>
    <rect x="820" y="568" width="120" height="14" rx="7" fill="#eee"/><text x="880" y="579" font-size="8" text-anchor="middle" fill="#999">from the graph</text>

    <!-- row 6 -->
    <rect x="40" y="600" width="920" height="62" fill="#F7F7F7" stroke="#ddd"/>
    <rect x="56" y="608" width="92" height="46" fill="#E6E6E6"/>
    <rect x="164" y="608" width="64" height="14" rx="7" fill="#ddd"/><text x="196" y="619" font-size="8" text-anchor="middle" fill="#888">Ratified</text>
    <rect x="238" y="608" width="70" height="14" fill="#e6e6e6"/>
    <rect x="164" y="630" width="420" height="14" fill="#e0e0e0"/>
    <rect x="164" y="650" width="560" height="9" fill="#ececec"/>
    <rect x="820" y="640" width="120" height="14" rx="7" fill="#eee"/><text x="880" y="651" font-size="8" text-anchor="middle" fill="#999">ratified ✓</text>
  </g>

  <!-- subscribe band -->
  <rect x="40" y="690" width="920" height="80" fill="#FAFAFA" stroke="#cccccc"/>
  <text x="60" y="722" font-size="12" font-weight="700" fill="#555">Stay close to the thinking</text>
  <rect x="60" y="734" width="300" height="30" rx="4" fill="#fff" stroke="#bbb"/><text x="72" y="753" font-size="10" fill="#aaa">email…</text>
  <rect x="372" y="734" width="120" height="30" rx="4" fill="#444"/><text x="432" y="753" font-size="10" text-anchor="middle" fill="#fff">Request updates</text>
  <text x="508" y="753" font-size="10" fill="#888">· RSS</text>

  <!-- footer -->
  <rect x="40" y="870" width="920" height="88" fill="#EFEFEF" stroke="#cccccc"/>
  <text x="60" y="900" font-size="10" fill="#888">About · Open by Design · Access model · Preview access · RSS · Contact</text>
</svg>
