<svg xmlns="http://www.w3.org/2000/svg" viewBox="0 0 1000 880" font-family="-apple-system, BlinkMacSystemFont, 'Segoe UI', Roboto, Arial, sans-serif">
  <rect x="0" y="0" width="1000" height="880" fill="#ffffff"/>
  <text x="40" y="34" font-size="18" font-weight="700" fill="#333">Wireframe — Platform  <tspan font-size="12" font-weight="400" fill="#999">· the quiet graduation path</tspan></text>
  <rect x="40" y="48" width="920" height="810" fill="#ffffff" stroke="#cccccc"/>
  <rect x="40" y="48" width="920" height="56" fill="#F2F2F2" stroke="#cccccc"/><rect x="64" y="68" width="90" height="20" rx="3" fill="#ddd"/><text x="109" y="82" font-size="11" text-anchor="middle" fill="#666">logo</text><text x="360" y="82" font-size="12" fill="#666">Engine</text><text x="440" y="82" font-size="12" fill="#666">Explorations</text><text x="545" y="82" font-size="12" fill="#666">Thesis</text><text x="615" y="82" font-size="12" fill="#666">Community</text><rect x="800" y="64" width="60" height="26" rx="4" fill="#ddd"/><text x="830" y="81" font-size="11" text-anchor="middle" fill="#666">Contact</text><rect x="872" y="64" width="74" height="26" rx="4" fill="#444"/><text x="909" y="81" font-size="11" text-anchor="middle" fill="#fff">Platform</text>
  <!-- hero -->
  <rect x="40" y="104" width="920" height="170" fill="#FAFAFA" stroke="#cccccc"/><rect x="80" y="140" width="420" height="30" rx="3" fill="#e2e2e2"/><text x="92" y="162" font-size="14" font-weight="700" fill="#555">When context work needs governance</text><rect x="80" y="190" width="520" height="14" fill="#ececec"/><text x="80" y="232" font-size="12" font-style="italic" fill="#777">"which agent changed this record, under what policy, approved by whom?"</text><text x="80" y="256" font-size="10" font-style="italic" fill="#5B7FA6">the one question Vellis should not answer alone</text>
  <!-- before/after -->
  <rect x="40" y="292" width="450" height="200" fill="#F2F2F2" stroke="#ccc"/><text x="60" y="318" font-size="12" font-weight="700" fill="#555">On Vellis</text><rect x="60" y="334" width="380" height="10" fill="#ececec"/><rect x="60" y="354" width="340" height="10" fill="#ececec"/><text x="60" y="396" font-size="10" fill="#999">agents write · graphs run real ops · no audit answer</text>
  <rect x="510" y="292" width="450" height="200" fill="#EFEFEF" stroke="#999"/><text x="530" y="318" font-size="12" font-weight="700" fill="#333">On Kesher</text><rect x="530" y="334" width="380" height="10" fill="#e2e2e2"/><rect x="530" y="354" width="360" height="10" fill="#e2e2e2"/><text x="530" y="396" font-size="10" fill="#777">write-back gates · audit traces · approval policies · accumulated intelligence</text>
  <!-- single CTA -->
  <rect x="40" y="520" width="920" height="120" fill="#FAFAFA" stroke="#cccccc"/><text x="60" y="552" font-size="13" font-weight="700" fill="#555">Ready for governed operations?</text><rect x="60" y="568" width="420" height="12" fill="#ececec"/><rect x="60" y="592" width="200" height="36" rx="5" fill="#444"/><text x="160" y="616" font-size="12" text-anchor="middle" fill="#fff">Book a conversation</text><text x="600" y="600" font-size="10" font-style="italic" fill="#5B7FA6">one calm CTA — links out to the commercial site</text>
  <!-- footer -->
  <rect x="40" y="744" width="920" height="88" fill="#EFEFEF" stroke="#cccccc"/><text x="60" y="774" font-size="10" fill="#888">About · Open by Design · Access model · Run locally · RSS · Contact</text>
</svg>
