<svg xmlns="http://www.w3.org/2000/svg" viewBox="0 0 1000 980" font-family="-apple-system, BlinkMacSystemFont, 'Segoe UI', Roboto, Arial, sans-serif">
  <rect x="0" y="0" width="1000" height="980" fill="#ffffff"/>
  <text x="40" y="34" font-size="18" font-weight="700" fill="#333">Wireframe — The Thesis  <tspan font-size="12" font-weight="400" fill="#999">· story landing</tspan></text>
  <rect x="40" y="48" width="920" height="910" fill="#ffffff" stroke="#cccccc"/>
  <rect x="40" y="48" width="920" height="56" fill="#F2F2F2" stroke="#cccccc"/><rect x="64" y="68" width="90" height="20" rx="3" fill="#ddd"/><text x="109" y="82" font-size="11" text-anchor="middle" fill="#666">logo</text><text x="360" y="82" font-size="12" fill="#666">Engine</text><text x="440" y="82" font-size="12" fill="#666">Explorations</text><text x="545" y="82" font-size="12" font-weight="700" fill="#333">Thesis</text><text x="615" y="82" font-size="12" fill="#666">Community</text><rect x="800" y="64" width="60" height="26" rx="4" fill="#ddd"/><text x="830" y="81" font-size="11" text-anchor="middle" fill="#666">Contact</text><rect x="872" y="64" width="74" height="26" rx="4" fill="#444"/><text x="909" y="81" font-size="11" text-anchor="middle" fill="#fff">Platform</text>
  <!-- header -->
  <rect x="40" y="104" width="920" height="120" fill="#FAFAFA" stroke="#cccccc"/><rect x="80" y="134" width="480" height="26" rx="3" fill="#e2e2e2"/><text x="92" y="153" font-size="14" font-weight="700" fill="#555">The graph remembers. The model reasons. The human ratifies.</text><text x="80" y="184" font-size="11" fill="#999">cinematic hero + animated graph field</text><text x="700" y="153" font-size="11" fill="#666">Story arc + latest perspectives</text>
  <!-- story beats -->
  <rect x="80" y="196" width="120" height="26" rx="4" fill="#444"/><text x="140" y="213" font-size="10" text-anchor="middle" fill="#fff">Capability</text><rect x="210" y="196" width="140" height="26" rx="4" fill="#eee" stroke="#ccc"/><text x="280" y="213" font-size="10" text-anchor="middle" fill="#777">Semantics</text><rect x="360" y="196" width="140" height="26" rx="4" fill="#eee" stroke="#ccc"/><text x="430" y="213" font-size="10" text-anchor="middle" fill="#777">Governance</text>
  <text x="640" y="214" font-size="10" font-style="italic" fill="#5B7FA6">library moves to Perspectives</text>
  <!-- story chapter list -->
  <g>
    <rect x="40" y="240" width="920" height="92" fill="#F7F7F7" stroke="#ddd"/><rect x="56" y="256" width="120" height="60" fill="#E6E6E6"/><text x="116" y="290" font-size="9" text-anchor="middle" fill="#999">img</text><rect x="192" y="258" width="60" height="14" rx="7" fill="#ddd"/><text x="222" y="269" font-size="8" text-anchor="middle" fill="#888">lane</text><rect x="260" y="258" width="80" height="14" fill="#e6e6e6"/><rect x="192" y="282" width="420" height="14" fill="#e0e0e0"/><rect x="192" y="304" width="600" height="9" fill="#ececec"/><rect x="820" y="296" width="120" height="14" rx="7" fill="#eee"/><text x="880" y="307" font-size="8" text-anchor="middle" fill="#999">provenance ✓</text>
    <rect x="40" y="340" width="920" height="92" fill="#F7F7F7" stroke="#ddd"/><rect x="56" y="356" width="120" height="60" fill="#E6E6E6"/><rect x="192" y="358" width="60" height="14" rx="7" fill="#ddd"/><rect x="192" y="382" width="420" height="14" fill="#e0e0e0"/><rect x="192" y="404" width="600" height="9" fill="#ececec"/><rect x="820" y="396" width="120" height="14" rx="7" fill="#eee"/>
    <rect x="40" y="440" width="920" height="92" fill="#F7F7F7" stroke="#ddd"/><rect x="56" y="456" width="120" height="60" fill="#E6E6E6"/><rect x="192" y="458" width="60" height="14" rx="7" fill="#ddd"/><rect x="192" y="482" width="420" height="14" fill="#e0e0e0"/><rect x="192" y="504" width="600" height="9" fill="#ececec"/><rect x="820" y="496" width="120" height="14" rx="7" fill="#eee"/>
    <rect x="40" y="540" width="920" height="92" fill="#F7F7F7" stroke="#ddd"/><rect x="56" y="556" width="120" height="60" fill="#E6E6E6"/><rect x="192" y="558" width="60" height="14" rx="7" fill="#ddd"/><rect x="192" y="582" width="420" height="14" fill="#e0e0e0"/><rect x="192" y="604" width="600" height="9" fill="#ececec"/><rect x="820" y="596" width="120" height="14" rx="7" fill="#eee"/>
  </g>
  <!-- subscribe band -->
  <rect x="40" y="652" width="920" height="80" fill="#FAFAFA" stroke="#cccccc"/><text x="60" y="684" font-size="12" font-weight="700" fill="#555">Subscribe</text><rect x="60" y="696" width="300" height="30" rx="4" fill="#fff" stroke="#bbb"/><text x="72" y="715" font-size="10" fill="#aaa">email…</text><rect x="372" y="696" width="110" height="30" rx="4" fill="#444"/><text x="427" y="715" font-size="10" text-anchor="middle" fill="#fff">Subscribe</text><text x="520" y="715" font-size="10" fill="#888">· RSS</text>
  <rect x="40" y="870" width="920" height="88" fill="#EFEFEF" stroke="#cccccc"/><text x="60" y="900" font-size="10" fill="#888">About · Open by Design · Access model · Run locally · RSS · Contact</text>
</svg>
