<svg xmlns="http://www.w3.org/2000/svg" viewBox="0 0 1000 1000" font-family="-apple-system, BlinkMacSystemFont, 'Segoe UI', Roboto, Arial, sans-serif">
  <rect x="0" y="0" width="1000" height="1000" fill="#ffffff"/>
  <text x="40" y="34" font-size="18" font-weight="700" fill="#333">Wireframe — Domain Explorations  <tspan font-size="12" font-weight="400" fill="#999">· gallery</tspan></text>
  <rect x="40" y="48" width="920" height="930" fill="#ffffff" stroke="#cccccc"/>
  <rect x="40" y="48" width="920" height="56" fill="#F2F2F2" stroke="#cccccc"/><rect x="64" y="68" width="90" height="20" rx="3" fill="#ddd"/><text x="109" y="82" font-size="11" text-anchor="middle" fill="#666">logo</text><text x="360" y="82" font-size="12" fill="#666">Engine</text><text x="440" y="82" font-size="12" font-weight="700" fill="#333">Explorations</text><text x="545" y="82" font-size="12" fill="#666">Thesis</text><text x="615" y="82" font-size="12" fill="#666">Community</text><rect x="800" y="64" width="60" height="26" rx="4" fill="#ddd"/><text x="830" y="81" font-size="11" text-anchor="middle" fill="#666">GitHub</text><rect x="872" y="64" width="74" height="26" rx="4" fill="#444"/><text x="909" y="81" font-size="11" text-anchor="middle" fill="#fff">Platform</text>
  <!-- header + filter -->
  <rect x="40" y="104" width="920" height="110" fill="#FAFAFA" stroke="#cccccc"/><rect x="80" y="130" width="320" height="26" rx="3" fill="#e2e2e2"/><text x="92" y="149" font-size="14" font-weight="700" fill="#555">Domain Explorations</text>
  <rect x="80" y="172" width="110" height="28" rx="14" fill="#444"/><text x="135" y="190" font-size="10" text-anchor="middle" fill="#fff">All</text><rect x="200" y="172" width="120" height="28" rx="14" fill="#eee" stroke="#ccc"/><text x="260" y="190" font-size="10" text-anchor="middle" fill="#777">Domain packs</text><rect x="330" y="172" width="130" height="28" rx="14" fill="#eee" stroke="#ccc"/><text x="395" y="190" font-size="10" text-anchor="middle" fill="#777">Reference builds</text><rect x="470" y="172" width="140" height="28" rx="14" fill="#eee" stroke="#ccc"/><text x="540" y="190" font-size="10" text-anchor="middle" fill="#777">Over-the-air ★</text>
  <text x="640" y="190" font-size="10" font-style="italic" fill="#5B7FA6">filter by type; freshness shown per card</text>
  <!-- featured OTA callout -->
  <rect x="40" y="226" width="920" height="70" fill="#F4EFE9" stroke="#caa"/><text x="60" y="252" font-size="12" font-weight="700" fill="#8a5a2a">★ Over-the-air graphs</text><rect x="60" y="264" width="500" height="10" fill="#e7ddd0"/><rect x="800" y="248" width="140" height="30" rx="4" fill="#8a5a2a"/><text x="870" y="268" font-size="10" text-anchor="middle" fill="#fff">Bootstrap it</text>
  <!-- card grid 3x2 -->
  <g>
    <rect x="40" y="312" width="296" height="190" fill="#F2F2F2" stroke="#ccc"/><rect x="56" y="328" width="264" height="96" fill="#E6E6E6"/><text x="188" y="380" font-size="10" text-anchor="middle" fill="#999">img</text><rect x="56" y="434" width="60" height="14" rx="7" fill="#ddd"/><text x="86" y="445" font-size="8" text-anchor="middle" fill="#888">type</text><rect x="56" y="456" width="200" height="12" fill="#e0e0e0"/><rect x="56" y="476" width="240" height="9" fill="#ececec"/>
    <rect x="352" y="312" width="296" height="190" fill="#F2F2F2" stroke="#ccc"/><rect x="368" y="328" width="264" height="96" fill="#E6E6E6"/><text x="500" y="380" font-size="10" text-anchor="middle" fill="#999">img</text><rect x="368" y="434" width="60" height="14" rx="7" fill="#ddd"/><rect x="368" y="456" width="200" height="12" fill="#e0e0e0"/><rect x="368" y="476" width="240" height="9" fill="#ececec"/>
    <rect x="664" y="312" width="296" height="190" fill="#F2F2F2" stroke="#ccc"/><rect x="680" y="328" width="264" height="96" fill="#E6E6E6"/><text x="812" y="380" font-size="10" text-anchor="middle" fill="#999">img</text><rect x="680" y="434" width="60" height="14" rx="7" fill="#ddd"/><rect x="680" y="456" width="200" height="12" fill="#e0e0e0"/><rect x="680" y="476" width="240" height="9" fill="#ececec"/>
    <rect x="40" y="516" width="296" height="190" fill="#F2F2F2" stroke="#ccc"/><rect x="56" y="532" width="264" height="96" fill="#E6E6E6"/><text x="188" y="584" font-size="10" text-anchor="middle" fill="#999">img</text><rect x="56" y="638" width="60" height="14" rx="7" fill="#ddd"/><rect x="56" y="660" width="200" height="12" fill="#e0e0e0"/>
    <rect x="352" y="516" width="296" height="190" fill="#F2F2F2" stroke="#ccc"/><rect x="368" y="532" width="264" height="96" fill="#E6E6E6"/><text x="500" y="584" font-size="10" text-anchor="middle" fill="#999">img</text><rect x="368" y="638" width="60" height="14" rx="7" fill="#ddd"/><rect x="368" y="660" width="200" height="12" fill="#e0e0e0"/>
    <rect x="664" y="516" width="296" height="190" fill="#F2F2F2" stroke="#ccc"/><rect x="680" y="532" width="264" height="96" fill="#E6E6E6"/><text x="812" y="584" font-size="10" text-anchor="middle" fill="#999">img</text><rect x="680" y="638" width="60" height="14" rx="7" fill="#ddd"/><rect x="680" y="660" width="200" height="12" fill="#e0e0e0"/>
  </g>
  <!-- propose CTA -->
  <rect x="40" y="724" width="920" height="64" fill="#FAFAFA" stroke="#ccc" stroke-dasharray="4 3"/><text x="60" y="752" font-size="12" font-weight="700" fill="#777">Propose a domain</text><rect x="60" y="764" width="360" height="10" fill="#ececec"/><rect x="800" y="740" width="140" height="32" rx="4" fill="#444"/><text x="870" y="761" font-size="10" text-anchor="middle" fill="#fff">Submit an idea</text>
  <rect x="40" y="890" width="920" height="88" fill="#EFEFEF" stroke="#cccccc"/><text x="60" y="920" font-size="10" fill="#888">About · Open by Design · License · Trademark · GitHub · RSS · Contact</text>
</svg>
