<svg xmlns="http://www.w3.org/2000/svg" viewBox="0 0 1000 1000" font-family="-apple-system, BlinkMacSystemFont, 'Segoe UI', Roboto, Arial, sans-serif">
  <rect x="0" y="0" width="1000" height="1000" fill="#ffffff"/>
  <text x="40" y="34" font-size="18" font-weight="700" fill="#333">Wireframe — The Engine  <tspan font-size="12" font-weight="400" fill="#999">· section landing</tspan></text>
  <rect x="40" y="48" width="920" height="930" fill="#ffffff" stroke="#cccccc"/>
  <!-- nav -->
  <rect x="40" y="48" width="920" height="56" fill="#F2F2F2" stroke="#cccccc"/><rect x="64" y="68" width="90" height="20" rx="3" fill="#ddd"/><text x="109" y="82" font-size="11" text-anchor="middle" fill="#666">logo</text><text x="360" y="82" font-size="12" font-weight="700" fill="#333">Engine</text><text x="440" y="82" font-size="12" fill="#666">Explorations</text><text x="545" y="82" font-size="12" fill="#666">Thesis</text><text x="615" y="82" font-size="12" fill="#666">Community</text><rect x="800" y="64" width="60" height="26" rx="4" fill="#ddd"/><text x="830" y="81" font-size="11" text-anchor="middle" fill="#666">Contact</text><rect x="872" y="64" width="74" height="26" rx="4" fill="#444"/><text x="909" y="81" font-size="11" text-anchor="middle" fill="#fff">Platform</text>
  <!-- section hero -->
  <rect x="40" y="104" width="920" height="150" fill="#FAFAFA" stroke="#cccccc"/><rect x="80" y="136" width="360" height="28" rx="3" fill="#e2e2e2"/><text x="92" y="156" font-size="14" font-weight="700" fill="#555">The Engine — preview access</text><rect x="80" y="180" width="420" height="12" fill="#ececec"/><rect x="80" y="208" width="150" height="34" rx="5" fill="#444"/><text x="155" y="230" font-size="11" text-anchor="middle" fill="#fff">Request access</text><rect x="244" y="208" width="120" height="34" rx="5" fill="#fff" stroke="#888"/><text x="304" y="230" font-size="11" text-anchor="middle" fill="#666">Platform</text>
  <!-- two col: what it is / terminal -->
  <rect x="40" y="270" width="450" height="200" fill="#F2F2F2" stroke="#cccccc"/><text x="60" y="296" font-size="12" font-weight="700" fill="#555">What it is</text><rect x="60" y="312" width="380" height="10" fill="#ececec"/><rect x="60" y="332" width="360" height="10" fill="#ececec"/><rect x="60" y="352" width="380" height="10" fill="#ececec"/><rect x="60" y="372" width="340" height="10" fill="#ececec"/><text x="60" y="410" font-size="10" font-style="italic" fill="#5B7FA6">bullets: typed graph · schema language · storage · export</text>
  <rect x="510" y="270" width="450" height="200" fill="#2b2b2b"/><text x="530" y="296" font-size="11" fill="#ccc" font-family="monospace">$ run it tonight</text><rect x="530" y="312" width="300" height="9" fill="#444"/><rect x="530" y="330" width="360" height="9" fill="#444"/><rect x="530" y="348" width="260" height="9" fill="#444"/><text x="530" y="452" font-size="10" font-style="italic" fill="#8aa">terminal / quickstart snippet</text>
  <!-- feature blocks -->
  <text x="40" y="504" font-size="13" font-weight="700" fill="#333">Capabilities</text>
  <g><rect x="40" y="516" width="296" height="120" fill="#F2F2F2" stroke="#cccccc"/><text x="56" y="540" font-size="11" font-weight="700" fill="#666">Schema language</text><rect x="56" y="552" width="240" height="10" fill="#ececec"/><rect x="56" y="570" width="220" height="10" fill="#ececec"/>
  <rect x="352" y="516" width="296" height="120" fill="#F2F2F2" stroke="#cccccc"/><text x="368" y="540" font-size="11" font-weight="700" fill="#666">Open-standards export</text><text x="368" y="562" font-size="10" fill="#999">JSON-LD · RDF · CSV</text>
  <rect x="664" y="516" width="296" height="120" fill="#F2F2F2" stroke="#cccccc"/><text x="680" y="540" font-size="11" font-weight="700" fill="#666">Access-pack docs</text><rect x="680" y="552" width="240" height="10" fill="#ececec"/></g>
  <!-- why open / license -->
  <rect x="40" y="660" width="920" height="150" fill="#FAFAFA" stroke="#cccccc"/><text x="60" y="686" font-size="12" font-weight="700" fill="#555">Why open · promise</text><rect x="60" y="702" width="520" height="10" fill="#ececec"/><rect x="60" y="722" width="480" height="10" fill="#ececec"/><rect x="60" y="752" width="300" height="32" rx="4" fill="#fff" stroke="#888"/><text x="210" y="773" font-size="10" text-anchor="middle" fill="#666">Portability · no-rug-pull covenant</text><text x="600" y="730" font-size="10" font-style="italic" fill="#5B7FA6">trust signal: promise up front</text>
  <!-- footer -->
  <rect x="40" y="890" width="920" height="88" fill="#EFEFEF" stroke="#cccccc"/><text x="60" y="920" font-size="10" fill="#888">About · Open by Design · Access model · Request access · RSS · Contact</text>
</svg>
