<?xml version="1.0" encoding="UTF-8" standalone="no"?>
<!DOCTYPE svg PUBLIC "-//W3C//DTD SVG 1.1//EN" "http://www.w3.org/Graphics/SVG/1.1/DTD/svg11.dtd">
<svg width="100%" height="100%" viewBox="0 0 128 128" version="1.1" xmlns="http://www.w3.org/2000/svg" xmlns:xlink="http://www.w3.org/1999/xlink" xml:space="preserve" xmlns:serif="http://www.serif.com/" style="fill-rule:evenodd;clip-rule:evenodd;stroke-linecap:round;">
    <path d="M128,28L128,100C128,115.454 115.454,128 100,128L28,128C12.546,128 0,115.454 0,100L0,28C0,12.546 12.546,0 28,0L100,0C115.454,0 128,12.546 128,28Z" style="fill:rgb(4,16,38);"/>
    <g transform="matrix(1.43616,0,0,1.43616,-27.1787,-29.2373)">
        <path d="M51,29L77,29" style="fill:none;fill-rule:nonzero;stroke:rgb(245,245,245);stroke-width:8px;"/>
    </g>
    <g transform="matrix(1.43616,0,0,1.43616,-27.1787,-29.2373)">
        <path d="M51,32L51,45L51.373,43.313L50.86,44.416L50.347,45.518L49.835,46.621L49.322,47.723L48.809,48.826L48.296,49.928L47.783,51.031L47.271,52.134L46.758,53.236L46.245,54.339L45.732,55.441L45.219,56.544L44.706,57.646L44.194,58.749L43.681,59.852L43.168,60.954L42.655,62.057L42.142,63.159L41.63,64.262L41.117,65.364L40.604,66.467L40.091,67.569L39.065,69.775L38.553,70.877L38.04,71.98L37.527,73.082L37.014,74.185L36.501,75.287L35.989,76.39L35.476,77.493L34.963,78.595L34.45,79.698L33.937,80.8L33.424,81.903L32.912,83.005L31.886,85.211L31.373,86.313L31.323,86.424L31.092,86.991L30.882,87.56L30.693,88.13L30.527,88.703L30.383,89.276L30.263,89.851L30.165,90.427L30.09,91.004L30.039,91.58L30.013,92.155L30.01,92.729L30.032,93.301L30.078,93.87L30.149,94.435L30.245,94.995L30.365,95.55L30.51,96.099L30.679,96.64L30.872,97.173L31.088,97.696L31.328,98.209L31.591,98.712L31.875,99.202L32.182,99.68L32.509,100.144L32.857,100.594L33.225,101.029L33.612,101.449L34.017,101.854L34.44,102.241L34.881,102.612L35.337,102.966L35.81,103.301L36.297,103.619L36.799,103.918L37.315,104.198L37.844,104.459L38.386,104.701L38.94,104.923L39.505,105.125L40.08,105.306L40.666,105.467L41.261,105.607L41.866,105.726L42.478,105.824L43.098,105.901L43.726,105.956L44.36,105.989L45,106L83,106L83.64,105.989L84.274,105.956L84.902,105.901L85.522,105.824L86.134,105.726L86.739,105.607L87.334,105.467L87.92,105.306L88.495,105.125L89.06,104.923L89.614,104.701L90.156,104.459L90.685,104.198L91.201,103.918L91.703,103.619L92.19,103.301L92.663,102.966L93.119,102.612L93.56,102.241L93.983,101.854L94.388,101.449L94.775,101.029L95.143,100.594L95.491,100.144L95.818,99.68L96.125,99.202L96.409,98.712L96.672,98.209L96.912,97.696L97.128,97.173L97.321,96.64L97.49,96.099L97.635,95.55L97.755,94.995L97.851,94.435L97.922,93.87L97.968,93.301L97.99,92.729L97.987,92.155L97.961,91.58L97.91,91.004L97.835,90.427L97.737,89.851L97.617,89.276L97.473,88.703L97.307,88.13L97.118,87.56L96.908,86.991L96.677,86.424L96.627,86.313L96.114,85.211L95.088,83.005L94.576,81.903L94.063,80.8L93.55,79.698L93.037,78.595L92.524,77.493L92.011,76.39L91.499,75.287L90.986,74.185L90.473,73.082L89.96,71.98L89.447,70.877L88.935,69.775L87.909,67.569L87.396,66.467L86.883,65.364L86.37,64.262L85.858,63.159L85.345,62.057L84.832,60.954L84.319,59.852L83.806,58.749L83.294,57.646L82.781,56.544L82.268,55.441L81.755,54.339L81.242,53.236L80.729,52.134L80.217,51.031L79.704,49.928L79.191,48.826L78.678,47.723L78.165,46.621L77.653,45.518L77.14,44.416L76.627,43.313L77,45L77,32L76.963,31.455L76.852,30.921L76.669,30.406L76.418,29.922L76.103,29.476L75.73,29.077L75.307,28.732L74.84,28.448L74.34,28.231L73.814,28.084L73.273,28.009L72.727,28.009L72.186,28.084L71.66,28.231L71.16,28.448L70.693,28.732L70.27,29.077L69.897,29.476L69.582,29.922L69.331,30.406L69.148,30.921L69.037,31.455L69,32L69,45L69.373,46.687L69.886,47.789L70.912,49.995L71.424,51.097L71.937,52.2L72.45,53.302L72.963,54.405L73.476,55.507L73.989,56.61L74.501,57.713L75.014,58.815L75.527,59.918L76.04,61.02L76.553,62.123L77.065,63.225L78.091,65.431L78.604,66.533L79.117,67.636L79.63,68.738L80.142,69.841L80.655,70.943L81.168,72.046L81.681,73.148L82.194,74.251L82.706,75.354L83.219,76.456L83.732,77.559L84.245,78.661L84.758,79.764L85.271,80.866L85.783,81.969L86.296,83.072L86.809,84.174L87.322,85.277L87.835,86.379L88.347,87.482L88.86,88.584L89.373,89.687L89.323,89.576L89.439,89.864L89.537,90.144L89.618,90.416L89.682,90.68L89.731,90.936L89.765,91.183L89.786,91.421L89.793,91.65L89.788,91.87L89.772,92.082L89.745,92.284L89.708,92.478L89.662,92.664L89.607,92.842L89.544,93.013L89.473,93.176L89.395,93.333L89.309,93.483L89.217,93.628L89.119,93.767L89.013,93.901L88.901,94.031L88.783,94.156L88.658,94.277L88.526,94.395L88.388,94.509L88.243,94.619L88.09,94.725L87.93,94.829L87.763,94.929L87.589,95.026L87.406,95.119L87.216,95.208L87.018,95.294L86.811,95.376L86.596,95.455L86.373,95.528L86.141,95.598L85.901,95.663L85.652,95.723L85.394,95.778L85.127,95.827L84.851,95.871L84.565,95.909L84.271,95.941L83.967,95.966L83.654,95.985L83.332,95.996L83,96L45,96L44.668,95.996L44.346,95.985L44.033,95.966L43.729,95.941L43.435,95.909L43.149,95.871L42.873,95.827L42.606,95.778L42.348,95.723L42.099,95.663L41.859,95.598L41.627,95.528L41.404,95.455L41.189,95.376L40.982,95.294L40.784,95.208L40.594,95.119L40.411,95.026L40.237,94.929L40.07,94.829L39.91,94.725L39.757,94.619L39.612,94.509L39.474,94.395L39.342,94.277L39.217,94.156L39.099,94.031L38.987,93.901L38.881,93.767L38.783,93.628L38.691,93.483L38.605,93.333L38.527,93.176L38.456,93.013L38.393,92.842L38.338,92.664L38.292,92.478L38.255,92.284L38.228,92.082L38.212,91.87L38.207,91.65L38.214,91.421L38.235,91.183L38.269,90.936L38.318,90.68L38.382,90.416L38.463,90.144L38.561,89.864L38.677,89.576L38.627,89.687L39.14,88.584L39.653,87.482L40.165,86.379L40.678,85.277L41.191,84.174L41.704,83.072L42.217,81.969L42.729,80.866L43.242,79.764L43.755,78.661L44.268,77.559L44.781,76.456L45.294,75.354L45.806,74.251L46.319,73.148L46.832,72.046L47.345,70.943L47.858,69.841L48.37,68.738L48.883,67.636L49.396,66.533L49.909,65.431L50.935,63.225L51.447,62.123L51.96,61.02L52.473,59.918L52.986,58.815L53.499,57.713L54.011,56.61L54.524,55.507L55.037,54.405L55.55,53.302L56.063,52.2L56.576,51.097L57.088,49.995L58.114,47.789L58.627,46.687L59,45L59,32L58.963,31.455L58.852,30.921L58.669,30.406L58.418,29.922L58.103,29.476L57.73,29.077L57.307,28.732L56.84,28.448L56.34,28.231L55.814,28.084L55.273,28.009L54.727,28.009L54.186,28.084L53.66,28.231L53.16,28.448L52.693,28.732L52.27,29.077L51.897,29.476L51.582,29.922L51.331,30.406L51.148,30.921L51.037,31.455L51,32Z" style="fill:rgb(245,245,245);fill-rule:nonzero;"/>
    </g>
    <g transform="matrix(1.3582,0,0,1.64107,-22.1828,-55.3505)">
        <path d="M42.257,85.338C50.257,81.338 59,84 65,86C72,89 78.59,87.248 84.59,83.248L91.014,94.387C92.524,97.655 88.743,100.925 84.743,100.925L43.567,100.99C39.567,100.99 35.515,97.94 37.057,94.685L42.257,85.338Z" style="fill:rgb(209,91,33);fill-rule:nonzero;"/>
    </g>
    <g transform="matrix(1.43616,0,0,1.43616,-27.1787,-29.2373)">
        <circle cx="57" cy="77" r="5.5" style="fill:rgb(245,245,245);"/>
    </g>
    <g transform="matrix(1.43616,0,0,1.43616,-27.1787,-29.2373)">
        <circle cx="68" cy="68" r="4" style="fill:rgb(209,91,33);"/>
    </g>
    <g transform="matrix(1.43616,0,0,1.43616,-27.1787,-29.2373)">
        <circle cx="60" cy="58" r="2.5" style="fill:rgb(245,245,245);"/>
    </g>
</svg>
