<?xml version="1.0" encoding="UTF-8" standalone="no"?>
<!DOCTYPE svg PUBLIC "-//W3C//DTD SVG 1.1//EN" "http://www.w3.org/Graphics/SVG/1.1/DTD/svg11.dtd">
<svg width="100%" height="100%" viewBox="0 0 128 128" version="1.1" xmlns="http://www.w3.org/2000/svg" xmlns:xlink="http://www.w3.org/1999/xlink" xml:space="preserve" xmlns:serif="http://www.serif.com/" style="fill-rule:evenodd;clip-rule:evenodd;stroke-linecap:round;">
    <path d="M128,28L128,100C128,115.454 115.454,128 100,128L28,128C12.546,128 0,115.454 0,100L0,28C0,12.546 12.546,0 28,0L100,0C115.454,0 128,12.546 128,28Z" style="fill:rgb(4,16,38);"/>
    <g transform="matrix(1.43616,0,0,1.43616,-27.1787,-29.2373)">
        <path d="M51,29L77,29" style="fill:none;fill-rule:nonzero;stroke:rgb(245,245,245);stroke-width:10px;"/>
    </g>
    <g transform="matrix(1.43616,0,0,1.43616,-27.1787,-29.2373)">
        <path d="M55,32L55,45L35,88C32,95 37,101 45,101L83,101C91,101 96,95 93,88L73,45L73,32" style="fill:none;fill-rule:nonzero;stroke:rgb(245,245,245);stroke-width:10px;stroke-linejoin:round;"/>
    </g>
    <g transform="matrix(1.43616,0,0,1.43616,-27.1787,-29.2373)">
        <path d="M41.585,85.71C49.585,81.71 59,84 65,86C72,89 79.335,87.388 85.335,83.388L91.48,96.642C89.48,99.642 87,101 83,101L45,101C41,101 38.472,99.505 36.472,96.505L41.585,85.71Z" style="fill:rgb(209,91,33);fill-rule:nonzero;"/>
    </g>
</svg>
